<svg width="160" height="160" viewBox="0 0 160 160" fill="none" xmlns="http://www.w3.org/2000/svg">
  <rect width="160" height="160" rx="36" fill="#0C111A"/>
  <rect x="10" y="10" width="140" height="140" rx="30" stroke="#D4A85D" stroke-opacity="0.28"/>
  <path d="M50 80C50 61.2223 61.4167 50 79.1 50C96.7833 50 108.2 61.2223 108.2 80C108.2 98.7777 96.7833 110 79.1 110C61.4167 110 50 98.7777 50 80Z" stroke="#D4A85D" stroke-width="10"/>
  <path d="M110 50H94V110H110V50Z" fill="#F5F1E8"/>
  <path d="M55 49H78.6C92.5249 49 101.2 57.527 101.2 70.7C101.2 83.873 92.5249 92.4 78.6 92.4H66.4V111H55V49ZM78.1 82.3C85.8973 82.3 89.8 78.6664 89.8 70.7C89.8 62.7336 85.8973 59.1 78.1 59.1H66.4V82.3H78.1Z" fill="#F5F1E8"/>
</svg>
