<svg width="1200" height="630" viewBox="0 0 1200 630" fill="none" xmlns="http://www.w3.org/2000/svg">
  <rect width="1200" height="630" rx="40" fill="#0E4B7A"/>
  <rect x="60" y="60" width="1080" height="510" rx="30" fill="#0B3660"/>
  <rect x="80" y="90" width="520" height="120" rx="20" fill="#1177CC"/>
  <rect x="80" y="230" width="420" height="64" rx="16" fill="#1EA6F8"/>
  <rect x="80" y="320" width="520" height="220" rx="28" fill="#112D50"/>
  <rect x="620" y="90" width="420" height="220" rx="30" fill="#164A78"/>
  <rect x="640" y="120" width="360" height="40" rx="12" fill="#55B1FF"/>
  <rect x="640" y="180" width="330" height="20" rx="10" fill="#2F89D9"/>
  <rect x="640" y="220" width="300" height="20" rx="10" fill="#2F89D9"/>
  <rect x="640" y="260" width="250" height="20" rx="10" fill="#2F89D9"/>
  <rect x="640" y="320" width="420" height="220" rx="30" fill="#0D2B4A"/>
  <circle cx="740" cy="420" r="42" fill="#55B1FF" opacity="0.6"/>
  <circle cx="840" cy="360" r="28" fill="#55B1FF" opacity="0.4"/>
  <text x="100" y="155" fill="#F8FBFF" font-family="Inter, sans-serif" font-size="56" font-weight="700">Reloc-iq</text>
  <text x="100" y="215" fill="#D8E7FF" font-family="Inter, sans-serif" font-size="28" font-weight="500">Housing search for relocation</text>
  <text x="100" y="280" fill="#A9CBEF" font-family="Inter, sans-serif" font-size="24">Clean listings, faster decisions</text>
  <text x="100" y="340" fill="#F8FBFF" font-family="Inter, sans-serif" font-size="22" font-weight="600">Key features</text>
  <text x="100" y="380" fill="#D8E7FF" font-family="Inter, sans-serif" font-size="18">• Relocation-focused search</text>
  <text x="100" y="412" fill="#D8E7FF" font-family="Inter, sans-serif" font-size="18">• Responsive browser experience</text>
  <text x="100" y="444" fill="#D8E7FF" font-family="Inter, sans-serif" font-size="18">• Better discovery for users on the move</text>
</svg>